<svg width="725" height="222" viewBox="0 0 725 222" fill="none" xmlns="http://www.w3.org/2000/svg">
<path d="M-56.4 110.7C-56.4 97.7 -54 85 -49.2 72.6C-44.2 60 -37 48.6 -27.6 38.4C-18.2 28.2 -6.8 20.1 6.6 14.1C20.2 7.89999 35.5 4.79999 52.5 4.79999C72.9 4.79999 90.7 9.09999 105.9 17.7C121.1 26.1 132.4 37.3 139.8 51.3L95.1 83.1C92.5 76.1 88.7 70.7 83.7 66.9C78.9 63.1 73.6 60.5 67.8 59.1C62.2 57.5 56.7 56.7 51.3 56.7C42.9 56.7 35.6 58.4 29.4 61.8C23.4 65 18.4 69.3 14.4 74.7C10.6 80.1 7.7 86.1 5.70001 92.7C3.9 99.3 3 105.9 3 112.5C3 119.9 4.1 127 6.3 133.8C8.5 140.6 11.7 146.7 15.9 152.1C20.1 157.3 25.2 161.4 31.2 164.4C37.4 167.4 44.3 168.9 51.9 168.9C57.3 168.9 62.8 168.1 68.4 166.5C74 164.7 79.1 161.9 83.7 158.1C88.3 154.3 91.8 149.2 94.2 142.8L141.9 171.3C137.7 181.7 130.7 190.6 120.9 198C111.1 205.4 100 211.1 87.6 215.1C75.2 218.9 62.9 220.8 50.7 220.8C34.9 220.8 20.4 217.7 7.2 211.5C-5.8 205.1 -17.1 196.7 -26.7 186.3C-36.1 175.7 -43.4 163.9 -48.6 150.9C-53.8 137.7 -56.4 124.3 -56.4 110.7ZM157.622 -5.72205e-06H214.622V156.3C214.622 162.1 215.822 166.6 218.222 169.8C220.822 172.8 224.522 174.3 229.322 174.3C231.722 174.3 234.322 173.9 237.122 173.1C239.922 172.3 242.522 171.2 244.922 169.8L252.122 211.8C245.322 215 237.622 217.5 229.022 219.3C220.622 221.1 212.622 222 205.022 222C189.822 222 178.122 218.1 169.922 210.3C161.722 202.3 157.622 191 157.622 176.4V-5.72205e-06ZM256.763 171.3C256.763 160.7 259.663 151.4 265.463 143.4C271.263 135.2 279.263 128.8 289.463 124.2C299.863 119.6 311.663 117.3 324.863 117.3C331.063 117.3 336.863 117.8 342.263 118.8C347.863 119.8 352.663 121.3 356.663 123.3V118.5C356.663 111.1 354.463 105.6 350.063 102C345.863 98.4 338.963 96.6 329.363 96.6C320.563 96.6 312.263 98.1 304.463 101.1C296.863 103.9 288.863 108.1 280.463 113.7L263.963 78.3C274.563 71.5 285.663 66.5 297.263 63.3C309.063 59.9 321.663 58.2 335.063 58.2C360.063 58.2 379.363 63.9 392.963 75.3C406.763 86.5 413.663 103.2 413.663 125.4V156C413.663 161.4 414.463 165.2 416.063 167.4C417.663 169.4 420.463 170.6 424.463 171V219C419.863 220 415.463 220.7 411.263 221.1C407.263 221.7 403.663 222 400.463 222C390.263 222 382.463 220.2 377.063 216.6C371.863 212.8 368.463 207.3 366.863 200.1L365.663 194.4C358.663 203.4 350.563 210.3 341.363 215.1C332.163 219.7 322.363 222 311.963 222C301.563 222 292.163 219.8 283.763 215.4C275.363 211 268.763 205 263.963 197.4C259.163 189.6 256.763 180.9 256.763 171.3ZM349.163 175.2C351.363 173.6 353.163 171.9 354.563 170.1C355.963 168.1 356.663 166.1 356.663 164.1V152.4C353.463 151.2 349.763 150.2 345.563 149.4C341.563 148.6 337.963 148.2 334.763 148.2C327.963 148.2 322.163 149.9 317.363 153.3C312.763 156.7 310.463 161 310.463 166.2C310.463 169 311.263 171.6 312.863 174C314.463 176.2 316.663 178 319.463 179.4C322.263 180.6 325.463 181.2 329.063 181.2C332.463 181.2 335.963 180.7 339.563 179.7C343.363 178.5 346.563 177 349.163 175.2ZM508.352 222C494.552 222 480.952 219.8 467.552 215.4C454.352 210.8 443.152 204.2 433.952 195.6L453.452 160.5C463.252 166.9 472.652 171.9 481.652 175.5C490.852 179.1 499.152 180.9 506.552 180.9C510.752 180.9 513.852 180.4 515.852 179.4C517.852 178.2 518.852 176.3 518.852 173.7C518.852 171.9 518.152 170.4 516.752 169.2C515.352 168 513.052 166.8 509.852 165.6C506.852 164.4 502.952 163.1 498.152 161.7C485.752 157.3 475.352 153.2 466.952 149.4C458.752 145.6 452.552 141 448.352 135.6C444.352 130 442.352 122.6 442.352 113.4C442.352 102.6 445.052 93.1 450.452 84.9C455.852 76.5 463.552 69.9 473.552 65.1C483.752 60.3 495.952 57.9 510.152 57.9C520.752 57.9 531.352 59.6 541.952 63C552.752 66.2 563.152 72.1 573.152 80.7L551.552 115.5C541.552 109.3 533.052 104.9 526.052 102.3C519.252 99.7 513.152 98.4 507.752 98.4C505.152 98.4 502.852 98.7 500.852 99.3C499.052 99.9 497.652 100.8 496.652 102C495.652 103.2 495.152 104.8 495.152 106.8C495.152 108.8 495.852 110.5 497.252 111.9C498.652 113.1 500.852 114.3 503.852 115.5C506.852 116.5 510.652 117.7 515.252 119.1C528.852 123.1 539.952 127.2 548.552 131.4C557.152 135.4 563.452 140.3 567.452 146.1C571.652 151.9 573.752 159.5 573.752 168.9C573.752 185.5 567.852 198.5 556.052 207.9C544.452 217.3 528.552 222 508.352 222ZM658.645 222C644.845 222 631.245 219.8 617.845 215.4C604.645 210.8 593.445 204.2 584.245 195.6L603.745 160.5C613.545 166.9 622.945 171.9 631.945 175.5C641.145 179.1 649.445 180.9 656.845 180.9C661.045 180.9 664.145 180.4 666.145 179.4C668.145 178.2 669.145 176.3 669.145 173.7C669.145 171.9 668.445 170.4 667.045 169.2C665.645 168 663.345 166.8 660.145 165.6C657.145 164.4 653.245 163.1 648.445 161.7C636.045 157.3 625.645 153.2 617.245 149.4C609.045 145.6 602.845 141 598.645 135.6C594.645 130 592.645 122.6 592.645 113.4C592.645 102.6 595.345 93.1 600.745 84.9C606.145 76.5 613.845 69.9 623.845 65.1C634.045 60.3 646.245 57.9 660.445 57.9C671.045 57.9 681.645 59.6 692.245 63C703.045 66.2 713.445 72.1 723.445 80.7L701.845 115.5C691.845 109.3 683.345 104.9 676.345 102.3C669.545 99.7 663.445 98.4 658.045 98.4C655.445 98.4 653.145 98.7 651.145 99.3C649.345 99.9 647.945 100.8 646.945 102C645.945 103.2 645.445 104.8 645.445 106.8C645.445 108.8 646.145 110.5 647.545 111.9C648.945 113.1 651.145 114.3 654.145 115.5C657.145 116.5 660.945 117.7 665.545 119.1C679.145 123.1 690.245 127.2 698.845 131.4C707.445 135.4 713.745 140.3 717.745 146.1C721.945 151.9 724.045 159.5 724.045 168.9C724.045 185.5 718.145 198.5 706.345 207.9C694.745 217.3 678.845 222 658.645 222Z" fill="#00A7EE" fill-opacity="0.13"/>
</svg>
