<svg width="521" height="148" viewBox="0 0 521 148" fill="none" xmlns="http://www.w3.org/2000/svg">
<path d="M0.4 73.8C0.4 65.1333 2 56.6667 5.2 48.4C8.53333 40 13.3333 32.4 19.6 25.6C25.8667 18.8 33.4667 13.4 42.4 9.39999C51.4667 5.26666 61.6667 3.19999 73 3.19999C86.6 3.19999 98.4667 6.06666 108.6 11.8C118.733 17.4 126.267 24.8667 131.2 34.2L101.4 55.4C99.6667 50.7333 97.1333 47.1333 93.8 44.6C90.6 42.0667 87.0667 40.3333 83.2 39.4C79.4667 38.3333 75.8 37.8 72.2 37.8C66.6 37.8 61.7333 38.9333 57.6 41.2C53.6 43.3333 50.2667 46.2 47.6 49.8C45.0667 53.4 43.1333 57.4 41.8 61.8C40.6 66.2 40 70.6 40 75C40 79.9333 40.7333 84.6667 42.2 89.2C43.6667 93.7333 45.8 97.8 48.6 101.4C51.4 104.867 54.8 107.6 58.8 109.6C62.9333 111.6 67.5333 112.6 72.6 112.6C76.2 112.6 79.8667 112.067 83.6 111C87.3333 109.8 90.7333 107.933 93.8 105.4C96.8667 102.867 99.2 99.4667 100.8 95.2L132.6 114.2C129.8 121.133 125.133 127.067 118.6 132C112.067 136.933 104.667 140.733 96.4 143.4C88.1333 145.933 79.9333 147.2 71.8 147.2C61.2667 147.2 51.6 145.133 42.8 141C34.1333 136.733 26.6 131.133 20.2 124.2C13.9333 117.133 9.06667 109.267 5.6 100.6C2.13333 91.8 0.4 82.8667 0.4 73.8ZM143.081 -3.8147e-06H181.081V104.2C181.081 108.067 181.881 111.067 183.481 113.2C185.215 115.2 187.681 116.2 190.881 116.2C192.481 116.2 194.215 115.933 196.081 115.4C197.948 114.867 199.681 114.133 201.281 113.2L206.081 141.2C201.548 143.333 196.415 145 190.681 146.2C185.081 147.4 179.748 148 174.681 148C164.548 148 156.748 145.4 151.281 140.2C145.815 134.867 143.081 127.333 143.081 117.6V-3.8147e-06ZM209.175 114.2C209.175 107.133 211.108 100.933 214.975 95.6C218.842 90.1333 224.175 85.8667 230.975 82.8C237.908 79.7333 245.775 78.2 254.575 78.2C258.708 78.2 262.575 78.5333 266.175 79.2C269.908 79.8667 273.108 80.8667 275.775 82.2V79C275.775 74.0667 274.308 70.4 271.375 68C268.575 65.6 263.975 64.4 257.575 64.4C251.708 64.4 246.175 65.4 240.975 67.4C235.908 69.2667 230.575 72.0667 224.975 75.8L213.975 52.2C221.042 47.6667 228.442 44.3333 236.175 42.2C244.042 39.9333 252.442 38.8 261.375 38.8C278.042 38.8 290.908 42.6 299.975 50.2C309.175 57.6667 313.775 68.8 313.775 83.6V104C313.775 107.6 314.308 110.133 315.375 111.6C316.442 112.933 318.308 113.733 320.975 114V146C317.908 146.667 314.975 147.133 312.175 147.4C309.508 147.8 307.108 148 304.975 148C298.175 148 292.975 146.8 289.375 144.4C285.908 141.867 283.642 138.2 282.575 133.4L281.775 129.6C277.108 135.6 271.708 140.2 265.575 143.4C259.442 146.467 252.908 148 245.975 148C239.042 148 232.775 146.533 227.175 143.6C221.575 140.667 217.175 136.667 213.975 131.6C210.775 126.4 209.175 120.6 209.175 114.2ZM270.775 116.8C272.242 115.733 273.442 114.6 274.375 113.4C275.308 112.067 275.775 110.733 275.775 109.4V101.6C273.642 100.8 271.175 100.133 268.375 99.6C265.708 99.0667 263.308 98.8 261.175 98.8C256.642 98.8 252.775 99.9333 249.575 102.2C246.508 104.467 244.975 107.333 244.975 110.8C244.975 112.667 245.508 114.4 246.575 116C247.642 117.467 249.108 118.667 250.975 119.6C252.842 120.4 254.975 120.8 257.375 120.8C259.642 120.8 261.975 120.467 264.375 119.8C266.908 119 269.042 118 270.775 116.8ZM376.902 148C367.702 148 358.635 146.533 349.702 143.6C340.902 140.533 333.435 136.133 327.302 130.4L340.302 107C346.835 111.267 353.102 114.6 359.102 117C365.235 119.4 370.768 120.6 375.702 120.6C378.502 120.6 380.568 120.267 381.902 119.6C383.235 118.8 383.902 117.533 383.902 115.8C383.902 114.6 383.435 113.6 382.502 112.8C381.568 112 380.035 111.2 377.902 110.4C375.902 109.6 373.302 108.733 370.102 107.8C361.835 104.867 354.902 102.133 349.302 99.6C343.835 97.0667 339.702 94 336.902 90.4C334.235 86.6667 332.902 81.7333 332.902 75.6C332.902 68.4 334.702 62.0667 338.302 56.6C341.902 51 347.035 46.6 353.702 43.4C360.502 40.2 368.635 38.6 378.102 38.6C385.168 38.6 392.235 39.7333 399.302 42C406.502 44.1333 413.435 48.0667 420.102 53.8L405.702 77C399.035 72.8667 393.368 69.9333 388.702 68.2C384.168 66.4667 380.102 65.6 376.502 65.6C374.768 65.6 373.235 65.8 371.902 66.2C370.702 66.6 369.768 67.2 369.102 68C368.435 68.8 368.102 69.8667 368.102 71.2C368.102 72.5333 368.568 73.6667 369.502 74.6C370.435 75.4 371.902 76.2 373.902 77C375.902 77.6667 378.435 78.4667 381.502 79.4C390.568 82.0667 397.968 84.8 403.702 87.6C409.435 90.2667 413.635 93.5333 416.302 97.4C419.102 101.267 420.502 106.333 420.502 112.6C420.502 123.667 416.568 132.333 408.702 138.6C400.968 144.867 390.368 148 376.902 148ZM477.097 148C467.897 148 458.83 146.533 449.897 143.6C441.097 140.533 433.63 136.133 427.497 130.4L440.497 107C447.03 111.267 453.297 114.6 459.297 117C465.43 119.4 470.964 120.6 475.897 120.6C478.697 120.6 480.764 120.267 482.097 119.6C483.43 118.8 484.097 117.533 484.097 115.8C484.097 114.6 483.63 113.6 482.697 112.8C481.764 112 480.23 111.2 478.097 110.4C476.097 109.6 473.497 108.733 470.297 107.8C462.03 104.867 455.097 102.133 449.497 99.6C444.03 97.0667 439.897 94 437.097 90.4C434.43 86.6667 433.097 81.7333 433.097 75.6C433.097 68.4 434.897 62.0667 438.497 56.6C442.097 51 447.23 46.6 453.897 43.4C460.697 40.2 468.83 38.6 478.297 38.6C485.364 38.6 492.43 39.7333 499.497 42C506.697 44.1333 513.63 48.0667 520.297 53.8L505.897 77C499.23 72.8667 493.564 69.9333 488.897 68.2C484.364 66.4667 480.297 65.6 476.697 65.6C474.964 65.6 473.43 65.8 472.097 66.2C470.897 66.6 469.964 67.2 469.297 68C468.63 68.8 468.297 69.8667 468.297 71.2C468.297 72.5333 468.764 73.6667 469.697 74.6C470.63 75.4 472.097 76.2 474.097 77C476.097 77.6667 478.63 78.4667 481.697 79.4C490.764 82.0667 498.164 84.8 503.897 87.6C509.63 90.2667 513.83 93.5333 516.497 97.4C519.297 101.267 520.697 106.333 520.697 112.6C520.697 123.667 516.764 132.333 508.897 138.6C501.164 144.867 490.564 148 477.097 148Z" fill="#00A7EE" fill-opacity="0.13"/>
</svg>
