<svg width="113" height="113" viewBox="0 0 113 113" fill="none" xmlns="http://www.w3.org/2000/svg">
<path d="M45.1338 0.30901C43.015 0.728344 40.9404 1.52288 39.0203 2.64846C36.8354 3.92854 33.7234 7.10666 32.5096 9.26956C29.9053 13.9043 29.3977 19.2895 31.0309 24.2994C31.7371 26.374 32.2668 27.301 32.9951 27.6321C33.7234 27.9631 34.7607 27.5217 35.0918 26.7051C35.3125 26.1975 35.2684 25.9106 34.8049 24.8071C33.7234 22.2469 33.4586 20.9889 33.4586 18.4287C33.4365 14.1912 34.827 10.8586 37.8506 7.81291C39.3072 6.35627 40.0135 5.84866 41.7129 4.98792C45.8842 2.93538 50.21 2.78088 54.3371 4.54651C56.4338 5.42932 57.2062 5.47346 57.8021 4.74514C58.685 3.61956 58.2436 2.75881 56.2793 1.76565C53.2998 0.264868 48.5547 -0.3531 45.1338 0.30901Z" fill="black"/>
<path d="M23.1959 5.8928C22.4896 6.59905 21.342 9.60061 20.724 12.3594C19.8633 16.2217 19.9515 21.4965 20.9447 25.403C21.5406 27.7645 22.6883 30.6336 23.24 31.1192C24.0787 31.9137 25.3367 31.6047 25.8002 30.5012C26.0209 29.9494 25.9547 29.6184 25.1822 27.6983C22.7324 21.5627 22.8207 14.6547 25.4029 8.56331C25.9988 7.19495 26.0429 6.93011 25.8002 6.35628C25.3146 5.16448 24.1449 4.94378 23.1959 5.8928Z" fill="black"/>
<path d="M71.6181 5.84864C70.9119 6.53282 70.934 6.90801 71.7506 8.93848C74.1783 15.0299 74.1783 21.8275 71.7506 27.919C70.934 29.9494 70.9119 30.3246 71.6181 31.0088C72.8099 32.2227 73.8472 31.5826 74.8846 28.9783C77.5551 22.269 77.5551 14.5885 74.8846 7.87911C73.8472 5.27481 72.8099 4.63477 71.6181 5.84864Z" fill="black"/>
<path d="M61.0906 6.97424C60.2078 7.43772 60.0754 8.27639 60.6933 9.3799C63.099 13.5071 63.6728 15.5154 63.5183 19.1791C63.408 21.4303 63.099 22.6883 62.0176 25.2926C61.4217 26.683 62.4148 28.0072 63.7832 27.6983C64.666 27.4996 65.0853 26.8154 66.0123 24.0787C66.7406 22.0262 66.7627 21.8496 66.7406 18.4287C66.7406 15.052 66.7185 14.8092 66.0344 12.8008C65.2178 10.3289 63.3418 7.12873 62.5252 6.81975C61.841 6.57697 61.8189 6.57697 61.0906 6.97424Z" fill="black"/>
<path d="M46.458 7.92327C44.0523 8.51917 41.8894 10.2848 40.7638 12.558L40.0576 14.0147L39.9914 29.0887L39.9252 44.1407L40.4769 44.6924C41.1832 45.3987 42.0219 45.3987 42.706 44.6924L43.2578 44.1627V29.6405V15.1182L43.7875 13.9705C44.6924 12.0284 46.7449 10.8807 48.8857 11.1014C50.7838 11.3 52.2404 12.3153 53.1011 14.0588C53.4984 14.8534 53.5205 15.7582 53.5867 34.4297L53.6308 53.9399L54.1164 54.4475C54.6902 55.0655 55.6172 55.1096 56.3013 54.5358L56.831 54.1164L56.9414 45.8621L57.0517 37.6299L57.6697 36.5705C59.5898 33.3262 64.2467 33.26 66.3654 36.4381L66.9834 37.3651L67.0937 45.5532C67.1599 50.0555 67.2924 53.9178 67.4027 54.1385C67.8 54.9551 69.0801 55.2199 69.8746 54.6461C70.2719 54.3371 70.2939 53.9399 70.4043 47.5174C70.5146 41.1391 70.5588 40.6756 71.0002 39.8369C72.6996 36.5926 76.6722 35.8422 79.1883 38.2479C80.667 39.6604 80.6449 39.5721 80.7773 47.1864L80.8877 54.1164L81.4174 54.5358C82.1236 55.1096 83.0285 55.0655 83.6023 54.4475C84.0658 53.9619 84.0879 53.7192 84.0879 50.519C84.0879 46.6346 84.3527 45.3766 85.39 44.1186C86.7584 42.4854 89.4951 41.8895 91.5035 42.7944C92.5849 43.302 93.865 44.7365 94.1961 45.8842C94.5271 46.9877 94.5713 79.4532 94.2402 82.7858C93.7988 87.2219 92.8056 91.327 91.0842 95.8735L90.1572 98.3233V105.231V112.161L90.6869 112.581C91.349 113.132 92.0552 113.11 92.7615 112.559L93.3353 112.095L93.4015 105.43L93.4678 98.7647L94.4388 96.3369C95.5644 93.4457 96.7121 89.12 97.2638 85.6328C97.617 83.3155 97.6611 81.3733 97.6611 64.2246V45.3545L97.0652 44.0744C96.2265 42.3088 94.5271 40.5873 92.8498 39.8149C91.6359 39.241 91.2386 39.1748 89.2744 39.1748C87.2219 39.1748 86.9349 39.219 85.6328 39.8811C84.1761 40.6094 83.8672 40.6315 83.8672 39.9914C83.8672 39.241 82.5871 36.9457 81.6381 35.9967C81.1084 35.467 80.0269 34.7166 79.2324 34.3414C76.6281 33.1055 73.0969 33.3483 70.9781 34.9373C69.8304 35.7981 69.8084 35.7981 69.2345 34.8049C67.0717 31.0971 62.2383 29.7067 58.376 31.6489L56.9635 32.3551L56.8972 23.4166C56.831 14.6768 56.809 14.434 56.3234 13.1981C54.7344 9.24749 50.4527 6.95218 46.458 7.92327Z" fill="black"/>
<path d="M40.5873 49.4155L40.0576 49.8348L39.9473 56.5221L39.8369 63.1873L34.8049 57.736C32.0461 54.7565 29.3535 52.0418 28.8459 51.7108C26.2195 50.0555 23.0193 49.901 20.1943 51.2914C17.2148 52.7701 15.4271 55.5069 15.2947 58.8174C15.2285 60.2299 15.3168 60.8479 15.714 61.9735C16.0892 62.9887 18.826 67.1821 25.8223 77.4227C33.6131 88.833 35.7539 91.8125 37.1885 93.2692C39.7928 95.9176 42.5074 97.5949 45.84 98.6764L47.4291 99.184L47.4953 105.673L47.5615 112.161L48.0912 112.581C48.7533 113.132 49.4596 113.11 50.1879 112.537L50.7617 112.095V104.989C50.7617 96.3149 50.8941 96.7783 47.9588 95.8735C44.0523 94.7037 40.3224 92.276 38.2478 89.5834C37.7623 88.9213 33.2158 82.3444 28.1617 74.9729C22.2469 66.2992 18.8922 61.201 18.7377 60.6272C18.1859 58.5967 19.0025 56.0807 20.6137 54.8447C22.4014 53.4985 24.9394 53.2998 26.7713 54.3813C27.3451 54.6903 29.9935 57.4049 33.3924 61.0906C37.5857 65.6592 39.2631 67.3365 39.8148 67.5352C40.8521 67.8662 42.1101 67.4248 42.7502 66.4537C43.2578 65.7033 43.2578 65.6592 43.2578 57.8905V50.0776L42.706 49.5479C42.066 48.8858 41.2935 48.8416 40.5873 49.4155Z" fill="black"/>
</svg>
