<svg width="113" height="113" viewBox="0 0 113 113" fill="none" xmlns="http://www.w3.org/2000/svg">
<g clip-path="url(#clip0_34_25)">
<path d="M26.2195 0.309029C25.6457 0.728371 25.4912 1.36841 25.0498 4.67896L24.6305 7.72466L23.858 7.96743C23.4166 8.09985 22.3131 8.56333 21.3861 8.98267L19.6867 9.75513L16.9721 7.70258C15.0078 6.22388 14.0809 5.67212 13.6174 5.67212C13.0877 5.67212 12.3814 6.26801 9.33574 9.33579C6.26796 12.3815 5.67206 13.0877 5.67206 13.6174C5.67206 14.0809 6.22382 15.0079 7.70253 16.9721L9.75507 19.6868L8.98261 21.3862C8.56327 22.3131 8.0998 23.4166 7.96738 23.8581L7.7246 24.6526L4.36992 25.1161C-0.353131 25.8002 -6.16675e-06 25.2926 -6.16675e-06 31.6489C0.0220641 37.0782 0.0662047 37.2989 1.12558 37.6961C1.41249 37.8065 3.02363 38.0713 4.6789 38.292L7.7246 38.7114L8.07773 39.8149C8.27636 40.4329 8.73984 41.5584 9.09296 42.2868L9.75507 43.6551L7.76874 46.2815C5.60585 49.1727 5.36308 49.6141 5.76035 50.3645C6.13554 51.0928 12.1387 57.1401 12.867 57.5153C13.2201 57.7139 13.6836 57.7801 13.9705 57.6918C14.2353 57.6036 15.6037 56.6545 17.0383 55.5952L19.6205 53.6309L21.0109 54.2709C21.7834 54.602 22.909 55.0434 23.5269 55.2641L24.6305 55.6172L25.0277 58.5526C25.4691 61.9514 25.7119 62.8342 26.2637 63.1211C26.4844 63.2536 27.7424 63.3418 29.0666 63.3418H31.4502L31.9799 64.7102C33.3703 68.3739 35.2684 71.3313 38.3141 74.5977C42.2426 78.8352 44.2951 82.0133 44.9351 84.9487C45.1779 85.9418 45.3103 88.5241 45.4207 93.2471C45.5752 100.001 45.5973 100.111 46.1711 101.325C46.4801 102.009 47.098 102.98 47.5615 103.466C48.3119 104.326 50.6734 105.717 51.3576 105.717C51.5121 105.717 51.6445 105.849 51.6445 106.004C51.6445 106.732 53.0791 109.072 54.006 109.888C56.191 111.83 59.634 112.316 62.3266 111.058C64.0701 110.241 65.3502 108.917 66.1447 107.107C66.6965 105.827 66.8289 105.695 67.7559 105.386C69.4994 104.79 70.9781 103.444 71.9713 101.523C72.3685 100.751 72.501 100.067 72.5672 98.3674C72.6775 96.028 72.6334 96.0721 74.1121 96.359C74.6639 96.4694 74.8625 96.7122 75.348 97.8157C75.657 98.544 75.8557 99.2723 75.7674 99.4047C75.6791 99.5372 75.0832 100.354 74.4432 101.215C72.7437 103.488 72.7437 103.51 75.8777 106.644C78.8351 109.601 79.0338 109.667 80.6449 108.542C81.1967 108.145 82.0353 107.549 82.4988 107.196L83.3596 106.6L84.6617 107.173C85.368 107.482 85.9859 107.769 86.008 107.791C86.0301 107.814 86.1625 108.564 86.2949 109.469C86.648 111.852 86.6922 112.073 87.1777 112.559C87.575 112.956 87.9281 113 91.2607 113C95.8955 113 95.6969 113.155 96.2265 109.469C96.359 108.564 96.4914 107.814 96.5135 107.791C96.5355 107.769 97.1535 107.482 97.8597 107.173L99.1619 106.6L100.023 107.196C100.486 107.549 101.325 108.145 101.877 108.52C103.488 109.667 103.686 109.601 106.644 106.644C109.778 103.51 109.778 103.488 108.078 101.215C107.438 100.354 106.842 99.5372 106.754 99.4047C106.644 99.2061 107.504 96.8225 107.791 96.5135C107.813 96.4915 108.564 96.359 109.469 96.2266C111.852 95.8735 112.073 95.8293 112.559 95.3438C112.956 94.9465 113 94.5934 113 91.2829C113 86.7143 113.088 86.8467 109.998 86.3612L107.747 86.0301L107.173 84.6838L106.6 83.3376L107.195 82.4989C107.549 82.0354 108.145 81.1967 108.542 80.645C109.667 79.0338 109.601 78.8352 106.644 75.8778C103.488 72.7217 103.421 72.6997 101.17 74.4432C100.332 75.0833 99.5371 75.6792 99.4047 75.7674C99.206 75.8778 97.0431 75.0833 96.5135 74.7081C96.4914 74.7081 96.3148 73.6928 96.1383 72.479C95.6748 69.4553 95.7851 69.5215 91.2607 69.5215C86.7363 69.5215 86.8467 69.4553 86.3832 72.479C86.2066 73.6928 86.0301 74.7081 86.008 74.7081C85.9859 74.7301 85.39 75.017 84.6617 75.326L83.3816 75.9219L82.0795 74.9729C81.3732 74.4653 80.7773 73.9356 80.7773 73.8032C80.7773 73.6708 80.976 73.3838 81.2187 73.1631C81.925 72.5231 84.1762 69.1243 85.059 67.3586C86.0963 65.284 87.3101 61.6866 87.6412 59.6561C87.8619 58.3098 87.9723 58.045 88.3254 58.045C88.9213 58.045 89.9586 57.4711 90.1351 57.0518C90.5324 55.9704 89.8703 54.8448 88.7226 54.6903C88.193 54.6241 88.1709 54.5579 88.0164 52.417C87.8619 50.21 87.3101 47.0098 86.957 46.3256C86.8467 46.127 86.4715 45.8401 86.0963 45.7077C85.5666 45.487 85.3459 45.487 84.7721 45.7739C83.8672 46.2594 83.7568 46.8774 84.1982 48.8196C85.1252 52.6819 84.8162 58.5305 83.5141 62.437C82.2781 66.1448 80.5787 68.9256 77.4889 72.2803C72.9203 77.2241 70.6912 80.8215 69.9629 84.419C69.8084 85.1473 69.6318 86.935 69.5435 88.3917L69.4111 91.0401L67.0496 91.1063L64.7101 91.1725L64.5336 88.7889C64.3129 85.7211 64.3129 76.4737 64.5336 74.5315C64.6881 73.2514 64.7764 73.0307 65.1736 72.9424C69.1021 72.1038 71.0885 71.2872 72.1699 70.0292C74.9066 66.9172 74.0459 62.2825 70.5588 61.3334C67.9766 60.6493 64.7764 62.3045 63.3639 65.0633C63.1211 65.5489 62.6576 66.829 62.3486 67.8883C62.0396 68.9477 61.7527 69.8526 61.7086 69.8967C61.532 70.0954 58.6408 70.2278 57.5594 70.0954L56.3676 69.9409L55.9924 68.3739C55.551 66.4317 54.5799 64.335 53.6529 63.2756C52.5935 62.0838 50.7617 61.2893 48.9961 61.2672C47.1201 61.2452 46.0387 61.7969 45.1338 63.2315C44.5379 64.1805 44.4717 64.4895 44.4717 65.9682C44.4937 67.2483 44.6041 67.8663 44.9572 68.5284C46.0166 70.5147 48.0912 71.8389 51.2031 72.5231C52.108 72.7217 53.0129 72.9424 53.1894 73.0528C53.4322 73.1631 53.5646 73.7811 53.6971 75.1715C53.8957 77.3786 53.7633 90.1573 53.5205 90.7752C53.3881 91.1063 53.057 91.1504 51.1148 91.1504H48.8637L48.5988 87.8399C48.3119 84.1542 47.7601 82.1237 46.4359 79.7401C45.3324 77.7317 43.2578 75.0612 41.0287 72.6776C38.601 70.0733 37.4092 68.4622 36.1291 65.8799C33.0613 59.7444 32.5758 52.5715 34.7607 46.1049C38.292 35.7098 48.0912 28.6915 59.0381 28.6915C68.1752 28.6915 75.9881 33.0614 81.1305 41.0729C81.6601 41.9336 82.256 42.5957 82.543 42.662C83.6465 42.9489 84.9266 41.8012 84.6617 40.7418C84.4189 39.7487 81.9471 36.3278 80.0049 34.2532L78.0848 32.2227H79.409C80.5787 32.2227 80.7994 32.1565 81.1967 31.6489C81.7926 30.8764 81.7705 30.3909 81.1305 29.6626C80.689 29.1329 80.4242 29.0446 79.2103 28.9563C77.5109 28.8459 76.6723 29.1329 76.3191 29.9495C76.1646 30.3026 76.0322 30.5895 76.0101 30.6336C75.9881 30.6778 75.4363 30.3688 74.7963 29.9495C72.81 28.6915 70.1836 27.4555 67.9103 26.7272C65.7695 26.043 64.2246 25.7561 58.5525 25.0278L55.6392 24.6526L55.3744 23.8581C55.242 23.4166 54.7785 22.3131 54.3592 21.3862L53.5867 19.6868L55.5951 17.0163C57.14 14.9417 57.6035 14.1692 57.6035 13.6174C57.6035 12.9995 57.1621 12.4698 53.984 9.29165C50.8721 6.17973 50.2541 5.67212 49.6803 5.67212C49.1506 5.67212 48.356 6.15766 46.3256 7.70258L43.633 9.75513L41.9557 8.98267C41.0287 8.56333 39.9252 8.09985 39.4838 7.96743L38.6893 7.72466L38.2258 4.3479C37.5637 -0.308937 38.0271 4.57764e-05 31.6047 4.57764e-05C27.8527 0.0221176 26.5064 0.0883255 26.2195 0.309029ZM35.158 6.40044C35.4228 8.36469 35.6877 9.5565 35.9305 9.90961C36.1953 10.2627 36.9236 10.6379 38.1154 11.0352C39.1086 11.3663 40.7418 12.0504 41.735 12.5581C42.8826 13.154 43.7213 13.4409 44.0082 13.3747C44.273 13.3084 45.6193 12.4036 47.0098 11.3663C48.3781 10.329 49.5258 9.49028 49.5258 9.49028C49.5478 9.49028 50.5189 10.4614 51.7107 11.6532L53.8736 13.8161L51.9756 16.3321C50.9383 17.7225 50.0334 19.0688 49.9672 19.3336C49.901 19.6206 50.1879 20.4592 50.7617 21.6069C51.468 23.0194 52.5273 25.6016 52.5273 25.9327C52.5273 25.9768 51.6666 26.2637 50.6072 26.5948C49.5699 26.9038 47.8705 27.5659 46.8332 28.0514C45.7959 28.5149 44.9351 28.9122 44.891 28.9122C44.8689 28.9122 44.7144 28.3604 44.582 27.6983C44.4496 27.0141 43.9199 25.6458 43.4123 24.6526C41.2715 20.3489 36.5926 17.4356 31.7812 17.4356C27.7644 17.4356 23.2842 19.753 21.2096 22.887C20.393 24.1008 20.3709 24.454 20.9889 25.2485C21.673 26.1092 22.7986 26.043 23.5711 25.1161C25.5795 22.6663 27.6982 21.3641 30.3246 20.9006C35.6656 19.9958 41.117 24.2112 41.448 29.5081L41.5584 31.0971L39.241 33.3042C37.9168 34.5842 36.3719 36.3278 35.5994 37.4534C33.5469 40.4108 33.5689 40.3887 31.9578 40.3887C26.7713 40.3667 22.6441 36.703 22.0703 31.6268C21.9158 30.1702 21.8055 29.8391 21.2978 29.4198C20.5916 28.8018 20.084 28.7797 19.3336 29.3756C18.826 29.7729 18.7598 29.9715 18.7598 31.2075C18.7598 35.6877 21.7834 40.3004 26.043 42.3309C27.9851 43.2579 29.6404 43.6993 31.1191 43.6993C31.6047 43.6993 32.0019 43.7434 32.0019 43.7655C32.0019 43.8096 31.8033 44.4276 31.5605 45.1559C30.5674 48.0471 30.1701 50.6735 30.1701 54.4034C30.1701 56.3456 30.2805 58.3981 30.3908 58.9719L30.6115 60.0313H29.5742H28.5369L28.1396 56.8973C27.8086 54.4254 27.632 53.675 27.2789 53.2999C27.0141 53.035 25.9767 52.5495 24.9394 52.1963C23.9021 51.8653 22.291 51.2032 21.342 50.7176C19.2894 49.6583 19.466 49.6141 16.3762 51.9315C15.2064 52.8143 14.125 53.6088 13.9926 53.6971C13.8601 53.7633 12.8008 52.8584 11.631 51.6887L9.46816 49.5258L11.3662 47.0319C12.3814 45.6415 13.2863 44.3172 13.3746 44.0965C13.4629 43.8096 13.198 43.0592 12.6242 41.9778C12.1387 41.0288 11.4766 39.4397 11.1455 38.4024C10.3068 35.754 10.1744 35.6877 6.42245 35.2022L3.28847 34.8049L3.35468 31.693L3.42089 28.6032L6.57695 28.1397C10.2406 27.61 10.3068 27.5659 11.0131 25.2706C11.2779 24.4098 11.9621 22.7987 12.4918 21.6731C13.1098 20.4372 13.4408 19.4881 13.3525 19.2233C13.2863 19.0026 12.3814 17.7004 11.3662 16.31L9.46816 13.8161L11.631 11.6532C12.8008 10.4834 13.8601 9.57856 13.9926 9.64478C14.125 9.73306 15.2064 10.5276 16.3762 11.4104C19.4881 13.7499 19.2232 13.6836 21.651 12.5139C22.7986 11.9622 24.4318 11.3 25.2705 11.0352C27.5217 10.329 27.6541 10.1303 28.1396 6.42251L28.559 3.28852L31.6488 3.35474L34.7607 3.42094L35.158 6.40044ZM50.1217 64.7985C50.6955 65.0413 51.2031 65.4606 51.5121 65.9682C52.0859 66.8731 53.0129 69.5215 52.7701 69.5215C52.3728 69.5215 50.1437 68.7711 49.3713 68.3739C47.9146 67.6456 47.2084 65.7696 48.0471 64.8426C48.4885 64.3571 48.9519 64.335 50.1217 64.7985ZM69.9629 64.6661C71.0664 65.2399 70.4926 67.4469 68.9918 68.2856C68.0869 68.8374 65.593 69.6319 65.4164 69.4774C65.2619 69.3008 65.9682 67.2483 66.4978 66.3213C66.8068 65.7475 67.3144 65.262 67.9766 64.9309C69.058 64.3792 69.367 64.3571 69.9629 64.6661ZM93.1146 74.7963C93.4236 77.0696 93.6885 77.4227 95.5644 77.9965C96.2265 78.2172 97.2418 78.6366 97.8156 78.9235C99.3164 79.6959 99.824 79.6077 101.523 78.3497C102.34 77.7317 103.09 77.2461 103.201 77.2461C103.444 77.2461 105.275 79.0559 105.275 79.2987C105.275 79.409 104.834 80.0711 104.282 80.7774C102.781 82.7196 102.715 83.0286 103.466 84.5073C103.819 85.1915 104.326 86.4053 104.591 87.1999C105.165 88.9213 105.342 89.0538 107.88 89.4069L109.689 89.6497V91.2608V92.8499L107.813 93.0926C106.776 93.2251 105.739 93.4458 105.518 93.5782C105.275 93.6885 104.922 94.3065 104.724 94.9465C104.503 95.5866 103.995 96.8225 103.598 97.6833C103.112 98.6764 102.892 99.4268 102.98 99.6696C103.068 99.9124 103.62 100.751 104.216 101.546C104.79 102.362 105.275 103.09 105.275 103.201C105.275 103.444 103.466 105.275 103.223 105.275C103.112 105.275 102.362 104.79 101.545 104.216C100.751 103.62 99.9123 103.068 99.6695 102.98C99.4267 102.892 98.6763 103.113 97.6832 103.598C96.8224 103.995 95.5865 104.503 94.9465 104.724C94.3064 104.922 93.7105 105.253 93.6002 105.474C93.4678 105.695 93.2691 106.71 93.1146 107.769L92.8498 109.69H91.2607H89.6717L89.4068 107.769C89.2523 106.71 89.0537 105.695 88.9213 105.474C88.8109 105.253 88.215 104.922 87.575 104.702C86.935 104.503 85.699 103.995 84.8383 103.576C83.8451 103.113 83.1168 102.892 82.8519 102.98C82.6092 103.068 81.7705 103.62 80.976 104.216C80.1594 104.79 79.409 105.275 79.2986 105.275C79.0558 105.275 77.2461 103.444 77.2461 103.201C77.2461 103.09 77.7316 102.362 78.3055 101.546C78.9014 100.751 79.4531 99.9124 79.5414 99.6696C79.6297 99.4268 79.409 98.6764 78.9234 97.6833C78.5262 96.8225 78.0185 95.5866 77.7978 94.9465C77.5992 94.3065 77.2461 93.6885 77.0033 93.5561C76.7605 93.4458 75.7232 93.2251 74.708 93.0926L72.832 92.8278V91.2608V89.6717L74.8184 89.3848C77.0916 89.0538 77.4226 88.811 78.0185 86.9571C78.2393 86.295 78.7027 85.1915 79.0558 84.5073C79.8062 83.0286 79.74 82.7417 78.2393 80.8436C77.6875 80.1374 77.2461 79.4752 77.2461 79.3428C77.2461 79.078 79.0338 77.2461 79.2986 77.2461C79.409 77.2461 80.1814 77.7317 80.998 78.3497C82.6974 79.6077 83.2051 79.6959 84.7058 78.9235C85.2797 78.6366 86.2949 78.2172 86.957 77.9965C88.833 77.4227 89.0978 77.0696 89.4068 74.7963L89.6717 72.8321H91.2607H92.8498L93.1146 74.7963ZM61.1348 75.9661C60.9803 79.2766 61.0244 85.1032 61.223 88.4358L61.3775 91.1504H59.2146H57.0517V82.2782V73.3838L59.1484 73.428L61.2451 73.4501L61.1348 75.9661ZM75.348 82.4989L75.9219 83.3376L75.348 84.6838C74.8184 85.8977 74.6859 86.0301 73.9797 86.1626C73.5383 86.2288 73.141 86.2288 73.0748 86.1846C72.7879 85.8756 74.2004 81.6602 74.5976 81.6602C74.6859 81.6602 75.017 82.0354 75.348 82.4989ZM69.3008 96.8887C69.3008 99.6917 69.0801 100.442 67.9103 101.457C66.6303 102.583 65.9902 102.649 58.6408 102.583C51.0486 102.517 50.8279 102.45 49.5478 100.663C48.9078 99.7579 48.8857 99.6034 48.7975 97.0874L48.7312 94.461H59.016H69.3008V96.8887ZM62.9225 106.313C62.5914 106.953 61.51 107.88 60.8037 108.145C59.634 108.586 57.9125 108.454 56.8531 107.836C56.0365 107.35 55.1758 106.445 55.1758 106.048C55.1758 105.982 56.9635 105.938 59.1484 105.938C62.8783 105.938 63.1211 105.96 62.9225 106.313Z" fill="black"/>
<path d="M89.4068 81.6822C86.5818 82.234 83.7348 84.441 82.543 87.0012C81.7705 88.6785 81.3733 90.8856 81.6822 91.7904C81.9029 92.3863 82.6533 92.916 83.3154 92.916C84.0438 92.916 84.7059 91.9449 84.9486 90.5545C85.3459 88.0385 86.5156 86.4274 88.6123 85.4121C89.9365 84.7942 92.3422 84.7059 93.5781 85.2576C96.0941 86.3611 97.617 88.6123 97.617 91.2166C97.617 94.792 94.8582 97.5508 91.2608 97.5508C89.6275 97.5508 88.6565 97.2197 87.0674 96.1383C86.0963 95.4541 85.3459 95.4983 84.7059 96.2707C83.7127 97.4184 84.5514 98.7426 87.0674 100.001C91.7022 102.274 97.6611 100.199 99.9565 95.5203C103.444 88.3916 97.1756 80.1594 89.4068 81.6822Z" fill="black"/>
<path d="M84.8162 29.1329C83.823 29.5522 83.5582 31.0309 84.3086 31.7813C84.6838 32.1565 85.0369 32.2227 86.6039 32.2227C88.3474 32.2227 88.5019 32.1786 88.9213 31.6489C89.5172 30.8764 89.4951 30.3909 88.855 29.6405C88.3916 29.1108 88.1709 29.0225 86.8246 28.9784C85.9859 28.9342 85.081 29.0005 84.8162 29.1329Z" fill="black"/>
<path d="M92.7615 29.0666C91.6801 29.2873 91.2166 30.9647 92.0111 31.7592C92.5629 32.311 95.0789 32.6199 95.9838 32.2227C97.1756 31.7371 97.3963 30.126 96.381 29.486C95.8734 29.1549 93.5781 28.8901 92.7615 29.0666Z" fill="black"/>
<path d="M99.6916 31.1413C99.0957 31.4944 98.8087 32.4214 99.0957 33.0835C99.4267 33.8559 101.656 35.3788 102.45 35.3788C103.311 35.3788 103.951 34.7387 103.951 33.878C103.951 33.0393 103.554 32.5317 102.208 31.5827C101.214 30.8764 100.398 30.744 99.6916 31.1413Z" fill="black"/>
<path d="M104.415 37.2106C103.841 37.9389 103.841 38.0714 104.437 39.6604C105.011 41.2053 105.606 41.9337 106.313 41.9337C107.88 41.9337 108.299 40.8301 107.593 38.7114C107.328 37.8948 106.909 37.0782 106.688 36.9237C106.004 36.4381 104.922 36.5706 104.415 37.2106Z" fill="black"/>
<path d="M105.761 44.2952C105.055 44.5821 104.172 47.7823 104.569 48.643C104.878 49.3272 105.937 49.7024 106.622 49.3493C107.328 49.0182 107.99 47.6057 108.1 46.2153C108.189 45.2663 108.122 45.0014 107.725 44.6041C107.284 44.1627 106.423 44.0303 105.761 44.2952Z" fill="black"/>
<path d="M101.038 52.1522C99.5813 53.4985 99.4047 54.1827 100.31 55.0655C101.214 55.9924 101.987 55.7717 103.907 53.984C105.209 52.7702 104.724 50.9825 103.046 50.9825C102.45 50.9825 102.053 51.2252 101.038 52.1522Z" fill="black"/>
<path d="M94.0857 54.6682C92.9381 54.8227 92.2098 55.9924 92.607 57.0518C92.9601 57.9787 95.1672 58.2215 96.9549 57.5594C98.0805 57.14 98.3453 55.8158 97.4846 54.9992C96.9769 54.5137 96.0721 54.4254 94.0857 54.6682Z" fill="black"/>
<path d="M17.1045 60.1858C15.5154 60.4286 14.8754 62.1942 16.0451 63.1211C16.5748 63.5405 16.8176 63.5626 18.0977 63.4522C18.8922 63.3639 19.7088 63.2536 19.9295 63.1874C20.5254 63.0329 20.9668 61.8631 20.702 61.1348C20.3709 60.1637 19.2895 59.8768 17.1045 60.1858Z" fill="black"/>
<path d="M11.1455 62.5914C9.97578 63.1873 8.60742 64.6881 8.60742 65.3944C8.60742 66.3213 9.55645 67.1821 10.3951 67.0055C11.1896 66.851 13.2201 65.1957 13.485 64.4895C13.9926 63.1432 12.4697 61.9073 11.1455 62.5914Z" fill="black"/>
<path d="M6.09141 68.8373C5.62793 69.367 5.07617 71.1105 5.07617 72.1037C5.07617 73.4941 6.73145 74.2666 7.70254 73.2955C8.16602 72.832 8.82812 70.8016 8.82812 69.8746C8.82812 68.5945 6.95215 67.8883 6.09141 68.8373Z" fill="black"/>
<path d="M5.62789 76.4736C4.96578 77.1137 4.94371 77.4668 5.51754 79.1221C6.09137 80.8215 6.48864 81.2188 7.52594 81.2188C9.02672 81.2188 9.37985 80.1373 8.60739 77.9082C7.94528 75.966 6.70934 75.3701 5.62789 76.4736Z" fill="black"/>
<path d="M9.53435 83.0507C8.51912 84.1321 9.13709 85.3239 11.3883 86.6481C12.2711 87.1778 12.3594 87.1778 13.1097 86.8688C13.9926 86.4936 14.3236 85.6991 13.9484 84.8604C13.816 84.5735 13.176 83.9335 12.5138 83.4479C11.1234 82.3886 10.2627 82.2782 9.53435 83.0507Z" fill="black"/>
<path d="M16.7072 85.8756C15.7141 86.4494 15.8465 88.215 16.9059 88.7006C17.2149 88.833 18.1418 88.9434 18.9805 88.9434C20.8123 88.9434 21.4082 88.5461 21.4082 87.3102C21.4082 86.1184 20.6137 85.6328 18.6715 85.6328C17.8108 85.6328 16.9279 85.7432 16.7072 85.8756Z" fill="black"/>
<path d="M24.3656 86.1405C23.6152 86.8026 23.5711 87.9723 24.2994 88.5461C25.0277 89.142 28.0734 89.12 28.6914 88.502C29.3535 87.8399 29.2873 86.6702 28.559 86.0963C27.6762 85.3901 25.2043 85.4342 24.3656 86.1405Z" fill="black"/>
<path d="M32.1343 86.0963C31.406 86.6702 31.3398 87.8399 32.0019 88.502C32.6199 89.12 35.6656 89.142 36.3939 88.5461C37.1222 87.9723 37.0781 86.8026 36.3277 86.1405C35.489 85.4342 33.0172 85.3901 32.1343 86.0963Z" fill="black"/>
<path d="M39.859 86.0963C39.1306 86.6702 39.0644 87.8399 39.7265 88.502C40.3445 89.12 43.3902 89.142 44.1627 88.5461C44.891 87.9502 44.8248 86.8247 44.0523 86.1405C43.2136 85.4342 40.7418 85.3901 39.859 86.0963Z" fill="black"/>
</g>
<defs>
<clipPath id="clip0_34_25">
<rect width="113" height="113" fill="white"/>
</clipPath>
</defs>
</svg>
