<svg width="859" height="222" viewBox="0 0 859 222" fill="none" xmlns="http://www.w3.org/2000/svg">
<path d="M62.4 5.99999L104.1 151.5L145.2 5.99999H206.7L133.2 219H75L0.6 5.99999H62.4ZM218.963 219V61.2H275.963V219H218.963ZM218.963 48V-5.72205e-06H275.963V48H218.963ZM368.102 222C354.302 222 340.702 219.8 327.302 215.4C314.102 210.8 302.902 204.2 293.702 195.6L313.202 160.5C323.002 166.9 332.402 171.9 341.402 175.5C350.602 179.1 358.902 180.9 366.302 180.9C370.502 180.9 373.602 180.4 375.602 179.4C377.602 178.2 378.602 176.3 378.602 173.7C378.602 171.9 377.902 170.4 376.502 169.2C375.102 168 372.802 166.8 369.602 165.6C366.602 164.4 362.702 163.1 357.902 161.7C345.502 157.3 335.102 153.2 326.702 149.4C318.502 145.6 312.302 141 308.102 135.6C304.102 130 302.102 122.6 302.102 113.4C302.102 102.6 304.802 93.1 310.202 84.9C315.602 76.5 323.302 69.9 333.302 65.1C343.502 60.3 355.702 57.9 369.902 57.9C380.502 57.9 391.102 59.6 401.702 63C412.502 66.2 422.902 72.1 432.902 80.7L411.302 115.5C401.302 109.3 392.802 104.9 385.802 102.3C379.002 99.7 372.902 98.4 367.502 98.4C364.902 98.4 362.602 98.7 360.602 99.3C358.802 99.9 357.402 100.8 356.402 102C355.402 103.2 354.902 104.8 354.902 106.8C354.902 108.8 355.602 110.5 357.002 111.9C358.402 113.1 360.602 114.3 363.602 115.5C366.602 116.5 370.402 117.7 375.002 119.1C388.602 123.1 399.702 127.2 408.302 131.4C416.902 135.4 423.202 140.3 427.202 146.1C431.402 151.9 433.502 159.5 433.502 168.9C433.502 185.5 427.602 198.5 415.802 207.9C404.202 217.3 388.302 222 368.102 222ZM455.095 219V61.2H512.095V219H455.095ZM455.095 48V-5.72205e-06H512.095V48H455.095ZM618.635 222C604.635 222 592.235 219.8 581.435 215.4C570.635 211 561.535 205 554.135 197.4C546.935 189.6 541.435 180.8 537.635 171C534.035 161.2 532.235 150.9 532.235 140.1C532.235 129.3 534.035 119 537.635 109.2C541.435 99.2 546.935 90.4 554.135 82.8C561.535 75.2 570.635 69.2 581.435 64.8C592.235 60.4 604.635 58.2 618.635 58.2C632.835 58.2 645.235 60.4 655.835 64.8C666.635 69.2 675.635 75.2 682.835 82.8C690.235 90.4 695.735 99.2 699.335 109.2C703.135 119 705.035 129.3 705.035 140.1C705.035 150.9 703.135 161.2 699.335 171C695.735 180.8 690.235 189.6 682.835 197.4C675.635 205 666.635 211 655.835 215.4C645.235 219.8 632.835 222 618.635 222ZM590.735 140.1C590.735 147.1 591.935 153.2 594.335 158.4C596.735 163.4 600.035 167.3 604.235 170.1C608.435 172.7 613.235 174 618.635 174C624.035 174 628.835 172.7 633.035 170.1C637.235 167.3 640.535 163.4 642.935 158.4C645.335 153.2 646.535 147.1 646.535 140.1C646.535 133.1 645.335 127.1 642.935 122.1C640.535 116.9 637.235 113 633.035 110.4C628.835 107.6 624.035 106.2 618.635 106.2C613.235 106.2 608.435 107.6 604.235 110.4C600.035 113 596.735 116.9 594.335 122.1C591.935 127.1 590.735 133.1 590.735 140.1ZM883.913 219H826.913V130.2C826.913 122.4 825.113 116.8 821.513 113.4C818.113 109.8 814.113 108 809.513 108C806.313 108 802.913 109 799.313 111C795.713 112.8 792.413 115.4 789.413 118.8C786.413 122.2 784.013 126.1 782.213 130.5V219H725.213V61.2H776.513V84.6C780.313 78.8 785.113 74 790.913 70.2C796.713 66.2 803.413 63.2 811.013 61.2C818.613 59.2 826.913 58.2 835.913 58.2C846.713 58.2 855.313 60.1 861.713 63.9C868.113 67.7 872.913 72.6 876.112 78.6C879.313 84.6 881.413 90.9 882.413 97.5C883.413 103.9 883.913 109.8 883.913 115.2V219Z" fill="#00A7EE" fill-opacity="0.07"/>
</svg>
