<svg width="590" height="148" viewBox="0 0 590 148" fill="none" xmlns="http://www.w3.org/2000/svg">
<path d="M41.6 3.99999L69.4 101L96.8 3.99999H137.8L88.8 146H50L0.4 3.99999H41.6ZM145.975 146V40.8H183.975V146H145.975ZM145.975 32V-3.8147e-06H183.975V32H145.975ZM245.402 148C236.202 148 227.135 146.533 218.202 143.6C209.402 140.533 201.935 136.133 195.802 130.4L208.802 107C215.335 111.267 221.602 114.6 227.602 117C233.735 119.4 239.268 120.6 244.202 120.6C247.002 120.6 249.068 120.267 250.402 119.6C251.735 118.8 252.402 117.533 252.402 115.8C252.402 114.6 251.935 113.6 251.002 112.8C250.068 112 248.535 111.2 246.402 110.4C244.402 109.6 241.802 108.733 238.602 107.8C230.335 104.867 223.402 102.133 217.802 99.6C212.335 97.0667 208.202 94 205.402 90.4C202.735 86.6667 201.402 81.7333 201.402 75.6C201.402 68.4 203.202 62.0667 206.802 56.6C210.402 51 215.535 46.6 222.202 43.4C229.002 40.2 237.135 38.6 246.602 38.6C253.668 38.6 260.735 39.7333 267.802 42C275.002 44.1333 281.935 48.0667 288.602 53.8L274.202 77C267.535 72.8667 261.868 69.9333 257.202 68.2C252.668 66.4667 248.602 65.6 245.002 65.6C243.268 65.6 241.735 65.8 240.402 66.2C239.202 66.6 238.268 67.2 237.602 68C236.935 68.8 236.602 69.8667 236.602 71.2C236.602 72.5333 237.068 73.6667 238.002 74.6C238.935 75.4 240.402 76.2 242.402 77C244.402 77.6667 246.935 78.4667 250.002 79.4C259.068 82.0667 266.468 84.8 272.202 87.6C277.935 90.2667 282.135 93.5333 284.802 97.4C287.602 101.267 289.002 106.333 289.002 112.6C289.002 123.667 285.068 132.333 277.202 138.6C269.468 144.867 258.868 148 245.402 148ZM303.397 146V40.8H341.397V146H303.397ZM303.397 32V-3.8147e-06H341.397V32H303.397ZM412.423 148C403.09 148 394.823 146.533 387.623 143.6C380.423 140.667 374.357 136.667 369.423 131.6C364.623 126.4 360.957 120.533 358.423 114C356.023 107.467 354.823 100.6 354.823 93.4C354.823 86.2 356.023 79.3333 358.423 72.8C360.957 66.1333 364.623 60.2667 369.423 55.2C374.357 50.1333 380.423 46.1333 387.623 43.2C394.823 40.2667 403.09 38.8 412.423 38.8C421.89 38.8 430.157 40.2667 437.223 43.2C444.423 46.1333 450.423 50.1333 455.223 55.2C460.157 60.2667 463.823 66.1333 466.223 72.8C468.757 79.3333 470.023 86.2 470.023 93.4C470.023 100.6 468.757 107.467 466.223 114C463.823 120.533 460.157 126.4 455.223 131.6C450.423 136.667 444.423 140.667 437.223 143.6C430.157 146.533 421.89 148 412.423 148ZM393.823 93.4C393.823 98.0667 394.623 102.133 396.223 105.6C397.823 108.933 400.023 111.533 402.823 113.4C405.623 115.133 408.823 116 412.423 116C416.023 116 419.223 115.133 422.023 113.4C424.823 111.533 427.023 108.933 428.623 105.6C430.223 102.133 431.023 98.0667 431.023 93.4C431.023 88.7333 430.223 84.7333 428.623 81.4C427.023 77.9333 424.823 75.3333 422.023 73.6C419.223 71.7333 416.023 70.8 412.423 70.8C408.823 70.8 405.623 71.7333 402.823 73.6C400.023 75.3333 397.823 77.9333 396.223 81.4C394.623 84.7333 393.823 88.7333 393.823 93.4ZM589.275 146H551.275V86.8C551.275 81.6 550.075 77.8667 547.675 75.6C545.408 73.2 542.742 72 539.675 72C537.542 72 535.275 72.6667 532.875 74C530.475 75.2 528.275 76.9333 526.275 79.2C524.275 81.4667 522.675 84.0667 521.475 87V146H483.475V40.8H517.675V56.4C520.208 52.5333 523.408 49.3333 527.275 46.8C531.142 44.1333 535.608 42.1333 540.675 40.8C545.742 39.4667 551.275 38.8 557.275 38.8C564.475 38.8 570.208 40.0667 574.475 42.6C578.742 45.1333 581.942 48.4 584.075 52.4C586.208 56.4 587.608 60.6 588.275 65C588.942 69.2667 589.275 73.2 589.275 76.8V146Z" fill="#00A7EE" fill-opacity="0.07"/>
</svg>
