<svg width="113" height="113" viewBox="0 0 113 113" fill="none" xmlns="http://www.w3.org/2000/svg">
<path d="M86.7363 0.308983C85.3459 0.684181 83.7789 1.50078 82.7416 2.38359C82.234 2.825 80.1814 5.65 77.9744 8.96055L74.068 14.7871H43.2799H12.4697L11.1896 15.3168C8.56328 16.3982 6.8418 18.1418 5.89277 20.6578L5.40723 21.96V51.9756C5.40723 79.6959 5.4293 82.0795 5.78242 83.2051C6.55488 85.699 8.6957 87.9502 11.2559 89.0096L12.4697 89.4951L30.6998 89.5613L48.9299 89.6275L47.7602 94.5271C47.098 97.2197 46.5242 99.6475 46.458 99.8902C46.3477 100.332 46.1932 100.376 42.7723 100.464C38.7113 100.574 37.8727 100.817 36.1953 102.318C34.8932 103.51 34.1869 104.988 34.0545 106.953L33.9221 108.564L29.9715 108.63L25.9988 108.696L25.4691 109.314C24.7408 110.153 24.7408 111.433 25.4691 112.272L25.9988 112.89H56.5H87.0012L87.5309 112.272C88.2592 111.433 88.2592 110.153 87.5309 109.314L87.0012 108.696L83.0285 108.63L79.0779 108.564L78.9455 106.953C78.8131 104.988 78.1068 103.51 76.8047 102.318C75.1273 100.817 74.2887 100.574 70.2277 100.464C66.8068 100.376 66.6523 100.332 66.542 99.8902C66.4758 99.6475 65.902 97.2197 65.2398 94.5271L64.0701 89.6275L82.3002 89.5613L100.53 89.4951L101.81 88.9875C104.393 87.9281 106.644 85.4562 107.306 82.9182C107.549 81.9912 107.593 76.2529 107.593 51.8652V21.96L107.107 20.6578C105.783 17.1486 102.495 14.7871 98.9191 14.7871C97.3301 14.7871 97.3963 14.9857 98.1908 12.8008C99.1178 10.2848 98.6543 6.53281 97.1094 4.32578C96.2928 3.11192 94.7258 1.67735 93.6002 1.12559C91.5477 0.0662079 88.7889 -0.264847 86.7363 0.308983ZM91.5256 5.03203C92.5408 5.56171 93.4898 6.59902 93.9533 7.65839C94.3947 8.71777 94.3285 10.9027 93.8209 11.8738C93.4236 12.6684 79.0338 30.3688 78.482 30.766C78.3055 30.8984 77.202 30.2143 75.017 28.5811C73.2734 27.2568 71.8609 26.1312 71.883 26.065C71.9051 25.9768 74.9508 21.4082 78.6586 15.8906C85.4342 5.76035 85.9197 5.14238 87.5309 4.63477C88.502 4.32578 90.5324 4.52441 91.5256 5.03203ZM66.0123 26.7934L60.9582 34.3635L59.2588 34.518C51.8873 35.1801 47.076 39.9693 46.127 47.6057C45.7297 50.6514 46.2814 56.2131 47.3408 59.7443C47.9367 61.7307 49.4816 62.3707 51.0045 61.2451C54.2488 58.8836 54.4254 58.8395 60.583 58.8174C65.1516 58.7732 65.7916 58.7291 67.0938 58.3098C71.9492 56.6766 74.8846 51.6666 74.1121 46.2814C73.9797 45.4207 73.8693 44.4275 73.8473 44.1186C73.8252 43.6551 75.9881 40.8963 83.7568 31.384L93.6885 19.2012L97.0211 19.2674C100.133 19.3115 100.398 19.3557 101.126 19.8412C102.119 20.5254 102.759 21.4965 103.046 22.7324C103.201 23.3725 103.289 31.1412 103.289 44.7365V65.7695H68.5283C30.766 65.7695 32.7082 65.7033 31.8916 66.9613C31.4061 67.6896 31.5826 68.9697 32.2227 69.6098C32.6861 70.0732 32.7082 70.0732 67.9324 70.1836L103.179 70.2939V76.0322V81.7705L102.561 82.8078C102.163 83.492 101.59 84.0658 100.905 84.4631L99.8682 85.0811H56.5H13.1318L12.0945 84.4631C11.4104 84.0658 10.8365 83.492 10.4393 82.8078L9.82129 81.7705V76.0322V70.2939L13.507 70.1836C16.8617 70.0732 17.2369 70.0291 17.6562 69.6098C18.2963 68.9697 18.4729 67.6896 17.9873 66.9613C17.3473 65.9902 16.4424 65.7695 12.9111 65.7695H9.68887L9.75508 44.0744C9.82129 20.1943 9.73301 21.8937 11.1896 20.4371C12.4477 19.157 10.7041 19.2232 42.1102 19.2012H71.0664L66.0123 26.7934ZM72.523 32.2227L75.5025 34.4518L75.1053 34.9814C73.5604 37.0119 70.9119 40.1459 70.7354 40.1459C70.625 40.168 69.3008 39.2631 67.8 38.1596L65.0854 36.1512L65.4605 35.5553C67.6234 32.2447 69.1904 30.0156 69.3449 30.0156C69.4553 30.0156 70.8898 31.0088 72.523 32.2227ZM65.3061 41.757C69.0359 44.5379 69.2787 44.7365 69.5436 45.6855C70.2719 48.2457 69.6318 51.0045 67.9104 52.7039C66.2992 54.293 65.8799 54.3812 60.252 54.4033C55.1537 54.4254 53.5426 54.6461 51.799 55.551C51.4459 55.7275 51.1148 55.8379 51.0707 55.7717C50.7838 55.5068 50.4748 52.726 50.4527 50.4307C50.4307 46.3918 51.2031 43.942 53.1674 41.8674C54.8447 40.0797 57.6477 38.91 60.2961 38.8658C61.2893 38.8438 61.4879 38.9541 65.3061 41.757ZM59.5898 89.6938C59.5898 89.76 60.1416 92.0994 60.8037 94.9023C61.4658 97.7053 62.0176 100.089 62.0176 100.221C62.0176 100.332 59.7885 100.42 56.5 100.42C53.2115 100.42 50.9824 100.332 50.9824 100.221C50.9824 100.089 51.5342 97.7053 52.1963 94.9023C52.8584 92.0994 53.4102 89.76 53.4102 89.6938C53.4102 89.6496 54.8006 89.6055 56.5 89.6055C58.1994 89.6055 59.5898 89.6496 59.5898 89.6938ZM72.8982 105.077C73.9576 105.364 74.5977 106.335 74.5977 107.637V108.586H56.4779H38.3582L38.4465 107.372C38.5568 106.004 38.9982 105.364 40.0355 105.077C41.0287 104.79 71.8609 104.79 72.8982 105.077Z" fill="black"/>
<path d="M24.1228 66.1006C21.9379 67.0496 22.5559 70.1836 24.9174 70.1836C27.0361 70.1836 27.9631 67.4469 26.2195 66.3654C25.4029 65.8357 24.8732 65.7695 24.1228 66.1006Z" fill="black"/>
</svg>
